<mxfile host="65bd71144e">
    <diagram id="pAi_KdXQo00Ve_mjZ8XZ" name="Página-1">
        <mxGraphModel dx="2521" dy="472" grid="1" gridSize="10" guides="1" tooltips="1" connect="1" arrows="1" fold="1" page="1" pageScale="1" pageWidth="827" pageHeight="1169" math="0" shadow="0">
            <root>
                <mxCell id="0"/>
                <mxCell id="1" parent="0"/>
                <mxCell id="4" value="" style="edgeStyle=none;html=1;fontSize=18;" parent="1" source="2" target="3" edge="1">
                    <mxGeometry relative="1" as="geometry"/>
                </mxCell>
                <mxCell id="2" value="&lt;font style=&quot;font-size: 18px&quot;&gt;Inicio&lt;/font&gt;" style="ellipse;whiteSpace=wrap;html=1;fillColor=#6a00ff;fontColor=#ffffff;strokeColor=#3700CC;" parent="1" vertex="1">
                    <mxGeometry x="250" y="80" width="120" height="80" as="geometry"/>
                </mxCell>
                <mxCell id="6" style="edgeStyle=none;html=1;fontSize=18;entryX=0.5;entryY=0;entryDx=0;entryDy=0;" parent="1" source="3" target="26" edge="1">
                    <mxGeometry relative="1" as="geometry"/>
                </mxCell>
                <mxCell id="3" value="&lt;span style=&quot;font-size: 18px&quot;&gt;peso, alt&lt;/span&gt;" style="shape=parallelogram;perimeter=parallelogramPerimeter;whiteSpace=wrap;html=1;fixedSize=1;fillColor=#76608a;fontColor=#ffffff;strokeColor=#432D57;" parent="1" vertex="1">
                    <mxGeometry x="250" y="210" width="120" height="60" as="geometry"/>
                </mxCell>
                <mxCell id="21" style="edgeStyle=none;html=1;entryX=0.5;entryY=0;entryDx=0;entryDy=0;fontSize=18;" parent="1" source="5" target="15" edge="1">
                    <mxGeometry relative="1" as="geometry">
                        <Array as="points">
                            <mxPoint x="495" y="560"/>
                        </Array>
                    </mxGeometry>
                </mxCell>
                <mxCell id="22" style="edgeStyle=none;html=1;exitX=0;exitY=0.5;exitDx=0;exitDy=0;entryX=0.5;entryY=0;entryDx=0;entryDy=0;fontSize=18;" parent="1" source="5" edge="1">
                    <mxGeometry relative="1" as="geometry">
                        <Array as="points">
                            <mxPoint x="125" y="560"/>
                        </Array>
                        <mxPoint x="125" y="650" as="targetPoint"/>
                    </mxGeometry>
                </mxCell>
                <mxCell id="5" value="imc&amp;lt;=16" style="rhombus;whiteSpace=wrap;html=1;fontSize=18;fillColor=#e3c800;fontColor=#000000;strokeColor=#B09500;" parent="1" vertex="1">
                    <mxGeometry x="245" y="490" width="130" height="140" as="geometry"/>
                </mxCell>
                <mxCell id="25" style="edgeStyle=none;html=1;entryX=1;entryY=0.5;entryDx=0;entryDy=0;fontSize=18;" parent="1" source="15" target="23" edge="1">
                    <mxGeometry relative="1" as="geometry">
                        <Array as="points">
                            <mxPoint x="490" y="1930"/>
                        </Array>
                    </mxGeometry>
                </mxCell>
                <mxCell id="15" value="&lt;div style=&quot;line-height: 19px&quot;&gt;&lt;font style=&quot;font-size: 18px&quot; color=&quot;#ffffff&quot;&gt;¡Usted se encuentra en un criterio de ingreso en hospital!&lt;/font&gt;&lt;/div&gt;" style="shape=document;whiteSpace=wrap;html=1;boundedLbl=1;fontSize=18;gradientColor=#00994D;fillColor=#994C00;" parent="1" vertex="1">
                    <mxGeometry x="410" y="645" width="170" height="115" as="geometry"/>
                </mxCell>
                <mxCell id="16" value="Falso" style="text;strokeColor=#6F0000;fillColor=#a20025;html=1;fontSize=24;fontStyle=1;verticalAlign=middle;align=center;fontColor=#ffffff;gradientColor=#FF0000;" parent="1" vertex="1">
                    <mxGeometry x="115" y="500" width="100" height="40" as="geometry"/>
                </mxCell>
                <mxCell id="17" value="Verdadero" style="text;strokeColor=#005700;fillColor=#008a00;html=1;fontSize=24;fontStyle=1;verticalAlign=middle;align=center;fontColor=#ffffff;gradientColor=#00FF00;" parent="1" vertex="1">
                    <mxGeometry x="395" y="500" width="130" height="40" as="geometry"/>
                </mxCell>
                <mxCell id="23" value="Fin" style="ellipse;whiteSpace=wrap;html=1;fontSize=18;fillColor=#6a00ff;fontColor=#ffffff;strokeColor=#3700CC;" parent="1" vertex="1">
                    <mxGeometry x="-365" y="1890" width="120" height="80" as="geometry"/>
                </mxCell>
                <mxCell id="27" style="edgeStyle=none;html=1;entryX=0.5;entryY=0;entryDx=0;entryDy=0;" edge="1" parent="1" source="26" target="5">
                    <mxGeometry relative="1" as="geometry"/>
                </mxCell>
                <mxCell id="26" value="&lt;font style=&quot;font-size: 18px&quot;&gt;imc=peso/(alt**2)&lt;/font&gt;" style="rounded=0;whiteSpace=wrap;html=1;gradientColor=#9933FF;fillColor=#66FFB3;" vertex="1" parent="1">
                    <mxGeometry x="225" y="340" width="170" height="80" as="geometry"/>
                </mxCell>
                <mxCell id="28" style="edgeStyle=none;html=1;entryX=0.5;entryY=0;entryDx=0;entryDy=0;fontSize=18;" edge="1" parent="1" source="30" target="34">
                    <mxGeometry relative="1" as="geometry">
                        <Array as="points">
                            <mxPoint x="320" y="720"/>
                        </Array>
                    </mxGeometry>
                </mxCell>
                <mxCell id="29" style="edgeStyle=none;html=1;exitX=0;exitY=0.5;exitDx=0;exitDy=0;entryX=0.5;entryY=0;entryDx=0;entryDy=0;fontSize=18;" edge="1" parent="1" source="30">
                    <mxGeometry relative="1" as="geometry">
                        <Array as="points">
                            <mxPoint x="-50" y="720"/>
                        </Array>
                        <mxPoint x="-50" y="810" as="targetPoint"/>
                    </mxGeometry>
                </mxCell>
                <mxCell id="30" value="imc&amp;lt;=17" style="rhombus;whiteSpace=wrap;html=1;fontSize=18;fillColor=#e3c800;fontColor=#000000;strokeColor=#B09500;" vertex="1" parent="1">
                    <mxGeometry x="70" y="650" width="130" height="140" as="geometry"/>
                </mxCell>
                <mxCell id="64" style="edgeStyle=none;html=1;fontFamily=Helvetica;fontSize=18;fontColor=#FFFFFF;" edge="1" parent="1" source="34">
                    <mxGeometry relative="1" as="geometry">
                        <mxPoint x="500" y="862.5" as="targetPoint"/>
                    </mxGeometry>
                </mxCell>
                <mxCell id="34" value="&lt;div style=&quot;line-height: 19px&quot;&gt;&lt;font style=&quot;font-size: 18px&quot; color=&quot;#ffffff&quot;&gt;Usted tiene infrapeso&lt;/font&gt;&lt;/div&gt;" style="shape=document;whiteSpace=wrap;html=1;boundedLbl=1;fontSize=18;gradientColor=#00994D;fillColor=#994C00;" vertex="1" parent="1">
                    <mxGeometry x="235" y="805" width="170" height="115" as="geometry"/>
                </mxCell>
                <mxCell id="35" value="Falso" style="text;strokeColor=#6F0000;fillColor=#a20025;html=1;fontSize=24;fontStyle=1;verticalAlign=middle;align=center;fontColor=#ffffff;gradientColor=#FF0000;" vertex="1" parent="1">
                    <mxGeometry x="-60" y="660" width="100" height="40" as="geometry"/>
                </mxCell>
                <mxCell id="36" value="Verdadero" style="text;strokeColor=#005700;fillColor=#008a00;html=1;fontSize=24;fontStyle=1;verticalAlign=middle;align=center;fontColor=#ffffff;gradientColor=#00FF00;" vertex="1" parent="1">
                    <mxGeometry x="220" y="660" width="130" height="40" as="geometry"/>
                </mxCell>
                <mxCell id="38" style="edgeStyle=none;html=1;entryX=0.5;entryY=0;entryDx=0;entryDy=0;fontSize=18;" edge="1" parent="1" source="40" target="44">
                    <mxGeometry relative="1" as="geometry">
                        <Array as="points">
                            <mxPoint x="135" y="875"/>
                        </Array>
                    </mxGeometry>
                </mxCell>
                <mxCell id="39" style="edgeStyle=none;html=1;exitX=0;exitY=0.5;exitDx=0;exitDy=0;entryX=0.5;entryY=0;entryDx=0;entryDy=0;fontSize=18;" edge="1" parent="1" source="40">
                    <mxGeometry relative="1" as="geometry">
                        <Array as="points">
                            <mxPoint x="-235" y="875"/>
                        </Array>
                        <mxPoint x="-235" y="965" as="targetPoint"/>
                    </mxGeometry>
                </mxCell>
                <mxCell id="40" value="imc&amp;lt;=18" style="rhombus;whiteSpace=wrap;html=1;fontSize=18;fillColor=#e3c800;fontColor=#000000;strokeColor=#B09500;" vertex="1" parent="1">
                    <mxGeometry x="-115" y="805" width="130" height="140" as="geometry"/>
                </mxCell>
                <mxCell id="65" style="edgeStyle=none;html=1;fontFamily=Helvetica;fontSize=18;fontColor=#FFFFFF;" edge="1" parent="1" source="44">
                    <mxGeometry relative="1" as="geometry">
                        <mxPoint x="500" y="1020.0000000000002" as="targetPoint"/>
                    </mxGeometry>
                </mxCell>
                <mxCell id="44" value="&lt;div style=&quot;line-height: 19px&quot;&gt;&lt;span style=&quot;color: rgb(255 , 255 , 255)&quot;&gt;Usted tiene peso bajo&lt;/span&gt;&lt;br&gt;&lt;/div&gt;" style="shape=document;whiteSpace=wrap;html=1;boundedLbl=1;fontSize=18;gradientColor=#00994D;fillColor=#994C00;" vertex="1" parent="1">
                    <mxGeometry x="50" y="960" width="170" height="115" as="geometry"/>
                </mxCell>
                <mxCell id="45" value="Falso" style="text;strokeColor=#6F0000;fillColor=#a20025;html=1;fontSize=24;fontStyle=1;verticalAlign=middle;align=center;fontColor=#ffffff;gradientColor=#FF0000;" vertex="1" parent="1">
                    <mxGeometry x="-245" y="815" width="100" height="40" as="geometry"/>
                </mxCell>
                <mxCell id="46" value="Verdadero" style="text;strokeColor=#005700;fillColor=#008a00;html=1;fontSize=24;fontStyle=1;verticalAlign=middle;align=center;fontColor=#ffffff;gradientColor=#00FF00;" vertex="1" parent="1">
                    <mxGeometry x="35" y="815" width="130" height="40" as="geometry"/>
                </mxCell>
                <mxCell id="58" style="edgeStyle=none;html=1;entryX=0.5;entryY=0;entryDx=0;entryDy=0;fontSize=18;" edge="1" parent="1" source="60" target="61">
                    <mxGeometry relative="1" as="geometry">
                        <Array as="points">
                            <mxPoint x="-50" y="1030"/>
                        </Array>
                    </mxGeometry>
                </mxCell>
                <mxCell id="59" style="edgeStyle=none;html=1;exitX=0;exitY=0.5;exitDx=0;exitDy=0;entryX=0.5;entryY=0;entryDx=0;entryDy=0;fontSize=18;" edge="1" parent="1" source="60">
                    <mxGeometry relative="1" as="geometry">
                        <Array as="points">
                            <mxPoint x="-420" y="1030"/>
                        </Array>
                        <mxPoint x="-420" y="1120" as="targetPoint"/>
                    </mxGeometry>
                </mxCell>
                <mxCell id="60" value="imc&amp;lt;=25" style="rhombus;whiteSpace=wrap;html=1;fontSize=18;fillColor=#e3c800;fontColor=#000000;strokeColor=#B09500;" vertex="1" parent="1">
                    <mxGeometry x="-300" y="960" width="130" height="140" as="geometry"/>
                </mxCell>
                <mxCell id="66" style="edgeStyle=none;html=1;fontFamily=Helvetica;fontSize=18;fontColor=#FFFFFF;" edge="1" parent="1" source="61">
                    <mxGeometry relative="1" as="geometry">
                        <mxPoint x="490" y="1172.5000000000002" as="targetPoint"/>
                    </mxGeometry>
                </mxCell>
                <mxCell id="61" value="&lt;div style=&quot;line-height: 19px&quot;&gt;&lt;span style=&quot;color: rgb(255 , 255 , 255)&quot;&gt;Usted tiene peso normal. Está saludable.&lt;/span&gt;&lt;br&gt;&lt;/div&gt;" style="shape=document;whiteSpace=wrap;html=1;boundedLbl=1;fontSize=18;gradientColor=#00994D;fillColor=#994C00;" vertex="1" parent="1">
                    <mxGeometry x="-135" y="1115" width="170" height="115" as="geometry"/>
                </mxCell>
                <mxCell id="62" value="Falso" style="text;strokeColor=#6F0000;fillColor=#a20025;html=1;fontSize=24;fontStyle=1;verticalAlign=middle;align=center;fontColor=#ffffff;gradientColor=#FF0000;" vertex="1" parent="1">
                    <mxGeometry x="-430" y="970" width="100" height="40" as="geometry"/>
                </mxCell>
                <mxCell id="63" value="Verdadero" style="text;strokeColor=#005700;fillColor=#008a00;html=1;fontSize=24;fontStyle=1;verticalAlign=middle;align=center;fontColor=#ffffff;gradientColor=#00FF00;" vertex="1" parent="1">
                    <mxGeometry x="-150" y="970" width="130" height="40" as="geometry"/>
                </mxCell>
                <mxCell id="71" style="edgeStyle=none;html=1;entryX=0.5;entryY=0;entryDx=0;entryDy=0;fontSize=18;" edge="1" parent="1" source="73" target="74">
                    <mxGeometry relative="1" as="geometry">
                        <Array as="points">
                            <mxPoint x="-235" y="1190"/>
                        </Array>
                    </mxGeometry>
                </mxCell>
                <mxCell id="72" style="edgeStyle=none;html=1;exitX=0;exitY=0.5;exitDx=0;exitDy=0;entryX=0.5;entryY=0;entryDx=0;entryDy=0;fontSize=18;" edge="1" parent="1" source="73">
                    <mxGeometry relative="1" as="geometry">
                        <Array as="points">
                            <mxPoint x="-605" y="1190"/>
                        </Array>
                        <mxPoint x="-605" y="1280" as="targetPoint"/>
                    </mxGeometry>
                </mxCell>
                <mxCell id="73" value="imc&amp;lt;=30" style="rhombus;whiteSpace=wrap;html=1;fontSize=18;fillColor=#e3c800;fontColor=#000000;strokeColor=#B09500;" vertex="1" parent="1">
                    <mxGeometry x="-485" y="1120" width="130" height="140" as="geometry"/>
                </mxCell>
                <mxCell id="103" style="edgeStyle=none;html=1;fontFamily=Helvetica;fontSize=18;fontColor=#FFFFFF;" edge="1" parent="1" source="74">
                    <mxGeometry relative="1" as="geometry">
                        <mxPoint x="490" y="1332.5" as="targetPoint"/>
                    </mxGeometry>
                </mxCell>
                <mxCell id="74" value="&lt;div style=&quot;line-height: 19px&quot;&gt;&lt;font style=&quot;font-size: 18px&quot; color=&quot;#ffffff&quot;&gt;Usted tiene sobrepeso&lt;/font&gt;&lt;/div&gt;" style="shape=document;whiteSpace=wrap;html=1;boundedLbl=1;fontSize=18;gradientColor=#00994D;fillColor=#994C00;" vertex="1" parent="1">
                    <mxGeometry x="-320" y="1275" width="170" height="115" as="geometry"/>
                </mxCell>
                <mxCell id="75" value="Falso" style="text;strokeColor=#6F0000;fillColor=#a20025;html=1;fontSize=24;fontStyle=1;verticalAlign=middle;align=center;fontColor=#ffffff;gradientColor=#FF0000;" vertex="1" parent="1">
                    <mxGeometry x="-615" y="1130" width="100" height="40" as="geometry"/>
                </mxCell>
                <mxCell id="76" value="Verdadero" style="text;strokeColor=#005700;fillColor=#008a00;html=1;fontSize=24;fontStyle=1;verticalAlign=middle;align=center;fontColor=#ffffff;gradientColor=#00FF00;" vertex="1" parent="1">
                    <mxGeometry x="-335" y="1130" width="130" height="40" as="geometry"/>
                </mxCell>
                <mxCell id="77" style="edgeStyle=none;html=1;entryX=0.5;entryY=0;entryDx=0;entryDy=0;fontSize=18;" edge="1" parent="1" source="79" target="80">
                    <mxGeometry relative="1" as="geometry">
                        <Array as="points">
                            <mxPoint x="-420" y="1345"/>
                        </Array>
                    </mxGeometry>
                </mxCell>
                <mxCell id="78" style="edgeStyle=none;html=1;exitX=0;exitY=0.5;exitDx=0;exitDy=0;entryX=0.5;entryY=0;entryDx=0;entryDy=0;fontSize=18;" edge="1" parent="1" source="79">
                    <mxGeometry relative="1" as="geometry">
                        <Array as="points">
                            <mxPoint x="-790" y="1345"/>
                        </Array>
                        <mxPoint x="-790" y="1435" as="targetPoint"/>
                    </mxGeometry>
                </mxCell>
                <mxCell id="79" value="imc&amp;lt;=35&lt;span style=&quot;color: rgba(0 , 0 , 0 , 0) ; font-family: monospace ; font-size: 0px&quot;&gt;%3CmxGraphModel%3E%3Croot%3E%3CmxCell%20id%3D%220%22%2F%3E%3CmxCell%20id%3D%221%22%20parent%3D%220%22%2F%3E%3CmxCell%20id%3D%222%22%20value%3D%22Denegado%22%20style%3D%22shape%3Ddocument%3BwhiteSpace%3Dwrap%3Bhtml%3D1%3BboundedLbl%3D1%3BfontSize%3D18%3BfillColor%3D%239933FF%3BgradientColor%3D%23660033%3B%22%20vertex%3D%221%22%20parent%3D%221%22%3E%3CmxGeometry%20x%3D%2250%22%20y%3D%22500%22%20width%3D%22160%22%20height%3D%2280%22%20as%3D%22geometry%22%2F%3E%3C%2FmxCell%3E%3C%2Froot%3E%3C%2FmxGraphModel%3E&lt;/span&gt;" style="rhombus;whiteSpace=wrap;html=1;fontSize=18;fillColor=#e3c800;fontColor=#000000;strokeColor=#B09500;" vertex="1" parent="1">
                    <mxGeometry x="-670" y="1275" width="130" height="140" as="geometry"/>
                </mxCell>
                <mxCell id="104" style="edgeStyle=none;html=1;fontFamily=Helvetica;fontSize=18;fontColor=#FFFFFF;" edge="1" parent="1" source="80">
                    <mxGeometry relative="1" as="geometry">
                        <mxPoint x="490" y="1488" as="targetPoint"/>
                    </mxGeometry>
                </mxCell>
                <mxCell id="80" value="&lt;div style=&quot;line-height: 19px&quot;&gt;&lt;font style=&quot;font-size: 18px&quot; color=&quot;#ffffff&quot;&gt;Usted tiene sobrepeso crónico&lt;/font&gt;&lt;/div&gt;" style="shape=document;whiteSpace=wrap;html=1;boundedLbl=1;fontSize=18;gradientColor=#00994D;fillColor=#994C00;" vertex="1" parent="1">
                    <mxGeometry x="-505" y="1430" width="170" height="115" as="geometry"/>
                </mxCell>
                <mxCell id="81" value="Falso" style="text;strokeColor=#6F0000;fillColor=#a20025;html=1;fontSize=24;fontStyle=1;verticalAlign=middle;align=center;fontColor=#ffffff;gradientColor=#FF0000;" vertex="1" parent="1">
                    <mxGeometry x="-800" y="1285" width="100" height="40" as="geometry"/>
                </mxCell>
                <mxCell id="82" value="Verdadero" style="text;strokeColor=#005700;fillColor=#008a00;html=1;fontSize=24;fontStyle=1;verticalAlign=middle;align=center;fontColor=#ffffff;gradientColor=#00FF00;" vertex="1" parent="1">
                    <mxGeometry x="-520" y="1285" width="130" height="40" as="geometry"/>
                </mxCell>
                <mxCell id="83" style="edgeStyle=none;html=1;entryX=0.5;entryY=0;entryDx=0;entryDy=0;fontSize=18;" edge="1" parent="1" source="85" target="86">
                    <mxGeometry relative="1" as="geometry">
                        <Array as="points">
                            <mxPoint x="-605" y="1510"/>
                        </Array>
                    </mxGeometry>
                </mxCell>
                <mxCell id="84" style="edgeStyle=none;html=1;exitX=0;exitY=0.5;exitDx=0;exitDy=0;entryX=0.5;entryY=0;entryDx=0;entryDy=0;fontSize=18;" edge="1" parent="1" source="85" target="101">
                    <mxGeometry relative="1" as="geometry">
                        <Array as="points">
                            <mxPoint x="-975" y="1510"/>
                        </Array>
                        <mxPoint x="-975" y="1600" as="targetPoint"/>
                    </mxGeometry>
                </mxCell>
                <mxCell id="85" value="imc&amp;lt;=40" style="rhombus;whiteSpace=wrap;html=1;fontSize=18;fillColor=#e3c800;fontColor=#000000;strokeColor=#B09500;" vertex="1" parent="1">
                    <mxGeometry x="-855" y="1440" width="130" height="140" as="geometry"/>
                </mxCell>
                <mxCell id="105" style="edgeStyle=none;html=1;fontFamily=Helvetica;fontSize=18;fontColor=#FFFFFF;" edge="1" parent="1" source="86">
                    <mxGeometry relative="1" as="geometry">
                        <mxPoint x="490" y="1652.5" as="targetPoint"/>
                    </mxGeometry>
                </mxCell>
                <mxCell id="86" value="&lt;div style=&quot;line-height: 19px&quot;&gt;&lt;font style=&quot;font-size: 18px&quot; color=&quot;#ffffff&quot;&gt;Usted tiene obesidad premórbida&lt;/font&gt;&lt;/div&gt;" style="shape=document;whiteSpace=wrap;html=1;boundedLbl=1;fontSize=18;gradientColor=#00994D;fillColor=#994C00;" vertex="1" parent="1">
                    <mxGeometry x="-690" y="1595" width="170" height="115" as="geometry"/>
                </mxCell>
                <mxCell id="87" value="Falso" style="text;strokeColor=#6F0000;fillColor=#a20025;html=1;fontSize=24;fontStyle=1;verticalAlign=middle;align=center;fontColor=#ffffff;gradientColor=#FF0000;" vertex="1" parent="1">
                    <mxGeometry x="-985" y="1450" width="100" height="40" as="geometry"/>
                </mxCell>
                <mxCell id="88" value="Verdadero" style="text;strokeColor=#005700;fillColor=#008a00;html=1;fontSize=24;fontStyle=1;verticalAlign=middle;align=center;fontColor=#ffffff;gradientColor=#00FF00;" vertex="1" parent="1">
                    <mxGeometry x="-705" y="1450" width="130" height="40" as="geometry"/>
                </mxCell>
                <mxCell id="106" style="edgeStyle=none;html=1;entryX=0;entryY=0.5;entryDx=0;entryDy=0;fontFamily=Helvetica;fontSize=18;fontColor=#FFFFFF;" edge="1" parent="1" source="101" target="23">
                    <mxGeometry relative="1" as="geometry">
                        <Array as="points">
                            <mxPoint x="-975" y="1930"/>
                        </Array>
                    </mxGeometry>
                </mxCell>
                <mxCell id="101" value="&lt;div style=&quot;line-height: 19px&quot;&gt;&lt;span style=&quot;color: rgb(255 , 255 , 255)&quot;&gt;Usted tiene obesidad mórbida&lt;/span&gt;&lt;br&gt;&lt;/div&gt;" style="shape=document;whiteSpace=wrap;html=1;boundedLbl=1;fontSize=18;gradientColor=#FF0000;fillColor=#006666;" vertex="1" parent="1">
                    <mxGeometry x="-1060" y="1595" width="170" height="115" as="geometry"/>
                </mxCell>
            </root>
        </mxGraphModel>
    </diagram>
</mxfile>